<svg width="127" height="21" viewBox="0 0 127 21" fill="none" xmlns="http://www.w3.org/2000/svg">
<mask id="path-1-outside-1_713_2" maskUnits="userSpaceOnUse" x="-1" y="-1" width="129" height="23" fill="black">
<rect fill="white" x="-1" y="-1" width="129" height="23"/>
<path d="M10.12 1.06V2.54H6.32V15H4.5V2.54H0.68V1.06H10.12ZM17.8003 3.84C18.627 3.84 19.3736 4.02 20.0403 4.38C20.707 4.72667 21.227 5.25333 21.6003 5.96C21.987 6.66667 22.1803 7.52667 22.1803 8.54V15H20.3803V8.8C20.3803 7.70667 20.107 6.87333 19.5603 6.3C19.0136 5.71333 18.267 5.42 17.3203 5.42C16.3603 5.42 15.5936 5.72 15.0203 6.32C14.4603 6.92 14.1803 7.79333 14.1803 8.94V15H12.3603V0.2H14.1803V5.6C14.5403 5.04 15.0336 4.60667 15.6603 4.3C16.3003 3.99333 17.0136 3.84 17.8003 3.84ZM35.1533 9.1C35.1533 9.44667 35.1333 9.81333 35.0933 10.2H26.3333C26.3999 11.28 26.7666 12.1267 27.4333 12.74C28.1133 13.34 28.9333 13.64 29.8933 13.64C30.6799 13.64 31.3333 13.46 31.8533 13.1C32.3866 12.7267 32.7599 12.2333 32.9733 11.62H34.9333C34.6399 12.6733 34.0533 13.5333 33.1733 14.2C32.2933 14.8533 31.1999 15.18 29.8933 15.18C28.8533 15.18 27.9199 14.9467 27.0933 14.48C26.2799 14.0133 25.6399 13.3533 25.1733 12.5C24.7066 11.6333 24.4733 10.6333 24.4733 9.5C24.4733 8.36667 24.6999 7.37333 25.1533 6.52C25.6066 5.66667 26.2399 5.01333 27.0533 4.56C27.8799 4.09333 28.8266 3.86 29.8933 3.86C30.9333 3.86 31.8533 4.08667 32.6533 4.54C33.4533 4.99333 34.0666 5.62 34.4933 6.42C34.9333 7.20667 35.1533 8.1 35.1533 9.1ZM33.2733 8.72C33.2733 8.02667 33.1199 7.43333 32.8133 6.94C32.5066 6.43333 32.0866 6.05333 31.5533 5.8C31.0333 5.53333 30.4533 5.4 29.8133 5.4C28.8933 5.4 28.1066 5.69333 27.4533 6.28C26.8133 6.86667 26.4466 7.68 26.3533 8.72H33.2733ZM46.1356 1.06V2.54H42.3356V15H40.5156V2.54H36.6956V1.06H46.1356ZM58.3759 9.1C58.3759 9.44667 58.3559 9.81333 58.3159 10.2H49.5559C49.6226 11.28 49.9893 12.1267 50.6559 12.74C51.3359 13.34 52.1559 13.64 53.1159 13.64C53.9026 13.64 54.5559 13.46 55.0759 13.1C55.6093 12.7267 55.9826 12.2333 56.1959 11.62H58.1559C57.8626 12.6733 57.2759 13.5333 56.3959 14.2C55.5159 14.8533 54.4226 15.18 53.1159 15.18C52.0759 15.18 51.1426 14.9467 50.3159 14.48C49.5026 14.0133 48.8626 13.3533 48.3959 12.5C47.9293 11.6333 47.6959 10.6333 47.6959 9.5C47.6959 8.36667 47.9226 7.37333 48.3759 6.52C48.8293 5.66667 49.4626 5.01333 50.2759 4.56C51.1026 4.09333 52.0493 3.86 53.1159 3.86C54.1559 3.86 55.0759 4.08667 55.8759 4.54C56.6759 4.99333 57.2893 5.62 57.7159 6.42C58.1559 7.20667 58.3759 8.1 58.3759 9.1ZM56.4959 8.72C56.4959 8.02667 56.3426 7.43333 56.0359 6.94C55.7293 6.43333 55.3093 6.05333 54.7759 5.8C54.2559 5.53333 53.6759 5.4 53.0359 5.4C52.1159 5.4 51.3293 5.69333 50.6759 6.28C50.0359 6.86667 49.6693 7.68 49.5759 8.72H56.4959ZM60.0983 9.5C60.0983 8.36667 60.3249 7.38 60.7783 6.54C61.2316 5.68667 61.8583 5.02667 62.6583 4.56C63.4716 4.09333 64.3983 3.86 65.4383 3.86C66.7849 3.86 67.8916 4.18667 68.7583 4.84C69.6383 5.49333 70.2183 6.4 70.4983 7.56H68.5383C68.3516 6.89333 67.9849 6.36667 67.4383 5.98C66.9049 5.59333 66.2383 5.4 65.4383 5.4C64.3983 5.4 63.5583 5.76 62.9183 6.48C62.2783 7.18667 61.9583 8.19333 61.9583 9.5C61.9583 10.82 62.2783 11.84 62.9183 12.56C63.5583 13.28 64.3983 13.64 65.4383 13.64C66.2383 13.64 66.9049 13.4533 67.4383 13.08C67.9716 12.7067 68.3383 12.1733 68.5383 11.48H70.4983C70.2049 12.6 69.6183 13.5 68.7383 14.18C67.8583 14.8467 66.7583 15.18 65.4383 15.18C64.3983 15.18 63.4716 14.9467 62.6583 14.48C61.8583 14.0133 61.2316 13.3533 60.7783 12.5C60.3249 11.6467 60.0983 10.6467 60.0983 9.5ZM78.3667 3.84C79.1934 3.84 79.9401 4.02 80.6067 4.38C81.2734 4.72667 81.7934 5.25333 82.1667 5.96C82.5534 6.66667 82.7467 7.52667 82.7467 8.54V15H80.9467V8.8C80.9467 7.70667 80.6734 6.87333 80.1267 6.3C79.5801 5.71333 78.8334 5.42 77.8867 5.42C76.9267 5.42 76.1601 5.72 75.5867 6.32C75.0267 6.92 74.7467 7.79333 74.7467 8.94V15H72.9267V0.2H74.7467V5.6C75.1067 5.04 75.6001 4.60667 76.2267 4.3C76.8667 3.99333 77.5801 3.84 78.3667 3.84ZM92.6997 7.82C93.2064 7.9 93.6664 8.10667 94.0797 8.44C94.5064 8.77333 94.8397 9.18667 95.0797 9.68C95.333 10.1733 95.4597 10.7 95.4597 11.26C95.4597 11.9667 95.2797 12.6067 94.9197 13.18C94.5597 13.74 94.033 14.1867 93.3397 14.52C92.6597 14.84 91.853 15 90.9197 15H85.7197V1.06H90.7197C91.6664 1.06 92.473 1.22 93.1397 1.54C93.8064 1.84667 94.3064 2.26667 94.6397 2.8C94.973 3.33333 95.1397 3.93333 95.1397 4.6C95.1397 5.42667 94.913 6.11333 94.4597 6.66C94.0197 7.19333 93.433 7.58 92.6997 7.82ZM87.5397 7.08H90.5997C91.453 7.08 92.113 6.88 92.5797 6.48C93.0464 6.08 93.2797 5.52667 93.2797 4.82C93.2797 4.11333 93.0464 3.56 92.5797 3.16C92.113 2.76 91.4397 2.56 90.5597 2.56H87.5397V7.08ZM90.7597 13.5C91.6664 13.5 92.373 13.2867 92.8797 12.86C93.3864 12.4333 93.6397 11.84 93.6397 11.08C93.6397 10.3067 93.373 9.7 92.8397 9.26C92.3064 8.80667 91.593 8.58 90.6997 8.58H87.5397V13.5H90.7597ZM99.8053 0.2V15H97.9853V0.2H99.8053ZM107.687 15.18C106.661 15.18 105.727 14.9467 104.887 14.48C104.061 14.0133 103.407 13.3533 102.927 12.5C102.461 11.6333 102.227 10.6333 102.227 9.5C102.227 8.38 102.467 7.39333 102.947 6.54C103.441 5.67333 104.107 5.01333 104.947 4.56C105.787 4.09333 106.727 3.86 107.767 3.86C108.807 3.86 109.747 4.09333 110.587 4.56C111.427 5.01333 112.087 5.66667 112.567 6.52C113.061 7.37333 113.307 8.36667 113.307 9.5C113.307 10.6333 113.054 11.6333 112.547 12.5C112.054 13.3533 111.381 14.0133 110.527 14.48C109.674 14.9467 108.727 15.18 107.687 15.18ZM107.687 13.58C108.341 13.58 108.954 13.4267 109.527 13.12C110.101 12.8133 110.561 12.3533 110.907 11.74C111.267 11.1267 111.447 10.38 111.447 9.5C111.447 8.62 111.274 7.87333 110.927 7.26C110.581 6.64667 110.127 6.19333 109.567 5.9C109.007 5.59333 108.401 5.44 107.747 5.44C107.081 5.44 106.467 5.59333 105.907 5.9C105.361 6.19333 104.921 6.64667 104.587 7.26C104.254 7.87333 104.087 8.62 104.087 9.5C104.087 10.3933 104.247 11.1467 104.567 11.76C104.901 12.3733 105.341 12.8333 105.887 13.14C106.434 13.4333 107.034 13.58 107.687 13.58ZM120.22 3.86C121.167 3.86 121.993 4.06667 122.7 4.48C123.42 4.89333 123.953 5.41333 124.3 6.04V4.04H126.14V15.24C126.14 16.24 125.927 17.1267 125.5 17.9C125.073 18.6867 124.46 19.3 123.66 19.74C122.873 20.18 121.953 20.4 120.9 20.4C119.46 20.4 118.26 20.06 117.3 19.38C116.34 18.7 115.773 17.7733 115.6 16.6H117.4C117.6 17.2667 118.013 17.8 118.64 18.2C119.267 18.6133 120.02 18.82 120.9 18.82C121.9 18.82 122.713 18.5067 123.34 17.88C123.98 17.2533 124.3 16.3733 124.3 15.24V12.94C123.94 13.58 123.407 14.1133 122.7 14.54C121.993 14.9667 121.167 15.18 120.22 15.18C119.247 15.18 118.36 14.94 117.56 14.46C116.773 13.98 116.153 13.3067 115.7 12.44C115.247 11.5733 115.02 10.5867 115.02 9.48C115.02 8.36 115.247 7.38 115.7 6.54C116.153 5.68667 116.773 5.02667 117.56 4.56C118.36 4.09333 119.247 3.86 120.22 3.86ZM124.3 9.5C124.3 8.67333 124.133 7.95333 123.8 7.34C123.467 6.72667 123.013 6.26 122.44 5.94C121.88 5.60667 121.26 5.44 120.58 5.44C119.9 5.44 119.28 5.6 118.72 5.92C118.16 6.24 117.713 6.70667 117.38 7.32C117.047 7.93333 116.88 8.65333 116.88 9.48C116.88 10.32 117.047 11.0533 117.38 11.68C117.713 12.2933 118.16 12.7667 118.72 13.1C119.28 13.42 119.9 13.58 120.58 13.58C121.26 13.58 121.88 13.42 122.44 13.1C123.013 12.7667 123.467 12.2933 123.8 11.68C124.133 11.0533 124.3 10.3267 124.3 9.5Z"/>
</mask>
<path d="M10.12 1.06V2.54H6.32V15H4.5V2.54H0.68V1.06H10.12ZM17.8003 3.84C18.627 3.84 19.3736 4.02 20.0403 4.38C20.707 4.72667 21.227 5.25333 21.6003 5.96C21.987 6.66667 22.1803 7.52667 22.1803 8.54V15H20.3803V8.8C20.3803 7.70667 20.107 6.87333 19.5603 6.3C19.0136 5.71333 18.267 5.42 17.3203 5.42C16.3603 5.42 15.5936 5.72 15.0203 6.32C14.4603 6.92 14.1803 7.79333 14.1803 8.94V15H12.3603V0.2H14.1803V5.6C14.5403 5.04 15.0336 4.60667 15.6603 4.3C16.3003 3.99333 17.0136 3.84 17.8003 3.84ZM35.1533 9.1C35.1533 9.44667 35.1333 9.81333 35.0933 10.2H26.3333C26.3999 11.28 26.7666 12.1267 27.4333 12.74C28.1133 13.34 28.9333 13.64 29.8933 13.64C30.6799 13.64 31.3333 13.46 31.8533 13.1C32.3866 12.7267 32.7599 12.2333 32.9733 11.62H34.9333C34.6399 12.6733 34.0533 13.5333 33.1733 14.2C32.2933 14.8533 31.1999 15.18 29.8933 15.18C28.8533 15.18 27.9199 14.9467 27.0933 14.48C26.2799 14.0133 25.6399 13.3533 25.1733 12.5C24.7066 11.6333 24.4733 10.6333 24.4733 9.5C24.4733 8.36667 24.6999 7.37333 25.1533 6.52C25.6066 5.66667 26.2399 5.01333 27.0533 4.56C27.8799 4.09333 28.8266 3.86 29.8933 3.86C30.9333 3.86 31.8533 4.08667 32.6533 4.54C33.4533 4.99333 34.0666 5.62 34.4933 6.42C34.9333 7.20667 35.1533 8.1 35.1533 9.1ZM33.2733 8.72C33.2733 8.02667 33.1199 7.43333 32.8133 6.94C32.5066 6.43333 32.0866 6.05333 31.5533 5.8C31.0333 5.53333 30.4533 5.4 29.8133 5.4C28.8933 5.4 28.1066 5.69333 27.4533 6.28C26.8133 6.86667 26.4466 7.68 26.3533 8.72H33.2733ZM46.1356 1.06V2.54H42.3356V15H40.5156V2.54H36.6956V1.06H46.1356ZM58.3759 9.1C58.3759 9.44667 58.3559 9.81333 58.3159 10.2H49.5559C49.6226 11.28 49.9893 12.1267 50.6559 12.74C51.3359 13.34 52.1559 13.64 53.1159 13.64C53.9026 13.64 54.5559 13.46 55.0759 13.1C55.6093 12.7267 55.9826 12.2333 56.1959 11.62H58.1559C57.8626 12.6733 57.2759 13.5333 56.3959 14.2C55.5159 14.8533 54.4226 15.18 53.1159 15.18C52.0759 15.18 51.1426 14.9467 50.3159 14.48C49.5026 14.0133 48.8626 13.3533 48.3959 12.5C47.9293 11.6333 47.6959 10.6333 47.6959 9.5C47.6959 8.36667 47.9226 7.37333 48.3759 6.52C48.8293 5.66667 49.4626 5.01333 50.2759 4.56C51.1026 4.09333 52.0493 3.86 53.1159 3.86C54.1559 3.86 55.0759 4.08667 55.8759 4.54C56.6759 4.99333 57.2893 5.62 57.7159 6.42C58.1559 7.20667 58.3759 8.1 58.3759 9.1ZM56.4959 8.72C56.4959 8.02667 56.3426 7.43333 56.0359 6.94C55.7293 6.43333 55.3093 6.05333 54.7759 5.8C54.2559 5.53333 53.6759 5.4 53.0359 5.4C52.1159 5.4 51.3293 5.69333 50.6759 6.28C50.0359 6.86667 49.6693 7.68 49.5759 8.72H56.4959ZM60.0983 9.5C60.0983 8.36667 60.3249 7.38 60.7783 6.54C61.2316 5.68667 61.8583 5.02667 62.6583 4.56C63.4716 4.09333 64.3983 3.86 65.4383 3.86C66.7849 3.86 67.8916 4.18667 68.7583 4.84C69.6383 5.49333 70.2183 6.4 70.4983 7.56H68.5383C68.3516 6.89333 67.9849 6.36667 67.4383 5.98C66.9049 5.59333 66.2383 5.4 65.4383 5.4C64.3983 5.4 63.5583 5.76 62.9183 6.48C62.2783 7.18667 61.9583 8.19333 61.9583 9.5C61.9583 10.82 62.2783 11.84 62.9183 12.56C63.5583 13.28 64.3983 13.64 65.4383 13.64C66.2383 13.64 66.9049 13.4533 67.4383 13.08C67.9716 12.7067 68.3383 12.1733 68.5383 11.48H70.4983C70.2049 12.6 69.6183 13.5 68.7383 14.18C67.8583 14.8467 66.7583 15.18 65.4383 15.18C64.3983 15.18 63.4716 14.9467 62.6583 14.48C61.8583 14.0133 61.2316 13.3533 60.7783 12.5C60.3249 11.6467 60.0983 10.6467 60.0983 9.5ZM78.3667 3.84C79.1934 3.84 79.9401 4.02 80.6067 4.38C81.2734 4.72667 81.7934 5.25333 82.1667 5.96C82.5534 6.66667 82.7467 7.52667 82.7467 8.54V15H80.9467V8.8C80.9467 7.70667 80.6734 6.87333 80.1267 6.3C79.5801 5.71333 78.8334 5.42 77.8867 5.42C76.9267 5.42 76.1601 5.72 75.5867 6.32C75.0267 6.92 74.7467 7.79333 74.7467 8.94V15H72.9267V0.2H74.7467V5.6C75.1067 5.04 75.6001 4.60667 76.2267 4.3C76.8667 3.99333 77.5801 3.84 78.3667 3.84ZM92.6997 7.82C93.2064 7.9 93.6664 8.10667 94.0797 8.44C94.5064 8.77333 94.8397 9.18667 95.0797 9.68C95.333 10.1733 95.4597 10.7 95.4597 11.26C95.4597 11.9667 95.2797 12.6067 94.9197 13.18C94.5597 13.74 94.033 14.1867 93.3397 14.52C92.6597 14.84 91.853 15 90.9197 15H85.7197V1.06H90.7197C91.6664 1.06 92.473 1.22 93.1397 1.54C93.8064 1.84667 94.3064 2.26667 94.6397 2.8C94.973 3.33333 95.1397 3.93333 95.1397 4.6C95.1397 5.42667 94.913 6.11333 94.4597 6.66C94.0197 7.19333 93.433 7.58 92.6997 7.82ZM87.5397 7.08H90.5997C91.453 7.08 92.113 6.88 92.5797 6.48C93.0464 6.08 93.2797 5.52667 93.2797 4.82C93.2797 4.11333 93.0464 3.56 92.5797 3.16C92.113 2.76 91.4397 2.56 90.5597 2.56H87.5397V7.08ZM90.7597 13.5C91.6664 13.5 92.373 13.2867 92.8797 12.86C93.3864 12.4333 93.6397 11.84 93.6397 11.08C93.6397 10.3067 93.373 9.7 92.8397 9.26C92.3064 8.80667 91.593 8.58 90.6997 8.58H87.5397V13.5H90.7597ZM99.8053 0.2V15H97.9853V0.2H99.8053ZM107.687 15.18C106.661 15.18 105.727 14.9467 104.887 14.48C104.061 14.0133 103.407 13.3533 102.927 12.5C102.461 11.6333 102.227 10.6333 102.227 9.5C102.227 8.38 102.467 7.39333 102.947 6.54C103.441 5.67333 104.107 5.01333 104.947 4.56C105.787 4.09333 106.727 3.86 107.767 3.86C108.807 3.86 109.747 4.09333 110.587 4.56C111.427 5.01333 112.087 5.66667 112.567 6.52C113.061 7.37333 113.307 8.36667 113.307 9.5C113.307 10.6333 113.054 11.6333 112.547 12.5C112.054 13.3533 111.381 14.0133 110.527 14.48C109.674 14.9467 108.727 15.18 107.687 15.18ZM107.687 13.58C108.341 13.58 108.954 13.4267 109.527 13.12C110.101 12.8133 110.561 12.3533 110.907 11.74C111.267 11.1267 111.447 10.38 111.447 9.5C111.447 8.62 111.274 7.87333 110.927 7.26C110.581 6.64667 110.127 6.19333 109.567 5.9C109.007 5.59333 108.401 5.44 107.747 5.44C107.081 5.44 106.467 5.59333 105.907 5.9C105.361 6.19333 104.921 6.64667 104.587 7.26C104.254 7.87333 104.087 8.62 104.087 9.5C104.087 10.3933 104.247 11.1467 104.567 11.76C104.901 12.3733 105.341 12.8333 105.887 13.14C106.434 13.4333 107.034 13.58 107.687 13.58ZM120.22 3.86C121.167 3.86 121.993 4.06667 122.7 4.48C123.42 4.89333 123.953 5.41333 124.3 6.04V4.04H126.14V15.24C126.14 16.24 125.927 17.1267 125.5 17.9C125.073 18.6867 124.46 19.3 123.66 19.74C122.873 20.18 121.953 20.4 120.9 20.4C119.46 20.4 118.26 20.06 117.3 19.38C116.34 18.7 115.773 17.7733 115.6 16.6H117.4C117.6 17.2667 118.013 17.8 118.64 18.2C119.267 18.6133 120.02 18.82 120.9 18.82C121.9 18.82 122.713 18.5067 123.34 17.88C123.98 17.2533 124.3 16.3733 124.3 15.24V12.94C123.94 13.58 123.407 14.1133 122.7 14.54C121.993 14.9667 121.167 15.18 120.22 15.18C119.247 15.18 118.36 14.94 117.56 14.46C116.773 13.98 116.153 13.3067 115.7 12.44C115.247 11.5733 115.02 10.5867 115.02 9.48C115.02 8.36 115.247 7.38 115.7 6.54C116.153 5.68667 116.773 5.02667 117.56 4.56C118.36 4.09333 119.247 3.86 120.22 3.86ZM124.3 9.5C124.3 8.67333 124.133 7.95333 123.8 7.34C123.467 6.72667 123.013 6.26 122.44 5.94C121.88 5.60667 121.26 5.44 120.58 5.44C119.9 5.44 119.28 5.6 118.72 5.92C118.16 6.24 117.713 6.70667 117.38 7.32C117.047 7.93333 116.88 8.65333 116.88 9.48C116.88 10.32 117.047 11.0533 117.38 11.68C117.713 12.2933 118.16 12.7667 118.72 13.1C119.28 13.42 119.9 13.58 120.58 13.58C121.26 13.58 121.88 13.42 122.44 13.1C123.013 12.7667 123.467 12.2933 123.8 11.68C124.133 11.0533 124.3 10.3267 124.3 9.5Z" fill="white" fill-opacity="0.8"/>
<path d="M10.12 1.06H11.12V0.0599995H10.12V1.06ZM10.12 2.54V3.54H11.12V2.54H10.12ZM6.32 2.54V1.54H5.32V2.54H6.32ZM6.32 15V16H7.32V15H6.32ZM4.5 15H3.5V16H4.5V15ZM4.5 2.54H5.5V1.54H4.5V2.54ZM0.68 2.54H-0.32V3.54H0.68V2.54ZM0.68 1.06V0.0599995H-0.32V1.06H0.68ZM9.12 1.06V2.54H11.12V1.06H9.12ZM10.12 1.54H6.32V3.54H10.12V1.54ZM5.32 2.54V15H7.32V2.54H5.32ZM6.32 14H4.5V16H6.32V14ZM5.5 15V2.54H3.5V15H5.5ZM4.5 1.54H0.68V3.54H4.5V1.54ZM1.68 2.54V1.06H-0.32V2.54H1.68ZM0.68 2.06H10.12V0.0599995H0.68V2.06ZM20.0403 4.38L19.5652 5.2599L19.572 5.26361L19.579 5.26722L20.0403 4.38ZM21.6003 5.96L20.7161 6.42712L20.7195 6.43359L20.7231 6.44001L21.6003 5.96ZM22.1803 15V16H23.1803V15H22.1803ZM20.3803 15H19.3803V16H20.3803V15ZM19.5603 6.3L18.8287 6.98177L18.8366 6.99008L19.5603 6.3ZM15.0203 6.32L14.2973 5.62909L14.2893 5.63768L15.0203 6.32ZM14.1803 15V16H15.1803V15H14.1803ZM12.3603 15H11.3603V16H12.3603V15ZM12.3603 0.2V-0.8H11.3603V0.2H12.3603ZM14.1803 0.2H15.1803V-0.8H14.1803V0.2ZM14.1803 5.6H13.1803V9.00481L15.0215 6.14076L14.1803 5.6ZM15.6603 4.3L15.2282 3.39815L15.2208 3.40178L15.6603 4.3ZM17.8003 4.84C18.4766 4.84 19.0575 4.98577 19.5652 5.2599L20.5155 3.50009C19.6898 3.05423 18.7774 2.84 17.8003 2.84V4.84ZM19.579 5.26722C20.0535 5.51398 20.4314 5.88814 20.7161 6.42712L22.4845 5.49288C22.0226 4.61852 21.3605 3.93935 20.5017 3.49278L19.579 5.26722ZM20.7231 6.44001C21.011 6.96626 21.1803 7.65195 21.1803 8.54H23.1803C23.1803 7.40138 22.963 6.36707 22.4776 5.47999L20.7231 6.44001ZM21.1803 8.54V15H23.1803V8.54H21.1803ZM22.1803 14H20.3803V16H22.1803V14ZM21.3803 15V8.8H19.3803V15H21.3803ZM21.3803 8.8C21.3803 7.54865 21.0662 6.43028 20.284 5.60992L18.8366 6.99008C19.1477 7.31639 19.3803 7.86469 19.3803 8.8H21.3803ZM20.2919 5.61827C19.5219 4.7919 18.4899 4.42 17.3203 4.42V6.42C18.044 6.42 18.5054 6.63476 18.8287 6.98172L20.2919 5.61827ZM17.3203 4.42C16.1339 4.42 15.0893 4.8003 14.2973 5.62914L15.7433 7.01086C16.098 6.63969 16.5867 6.42 17.3203 6.42V4.42ZM14.2893 5.63768C13.498 6.48547 13.1803 7.64116 13.1803 8.94H15.1803C15.1803 7.94551 15.4226 7.35452 15.7514 7.00232L14.2893 5.63768ZM13.1803 8.94V15H15.1803V8.94H13.1803ZM14.1803 14H12.3603V16H14.1803V14ZM13.3603 15V0.2H11.3603V15H13.3603ZM12.3603 1.2H14.1803V-0.8H12.3603V1.2ZM13.1803 0.2V5.6H15.1803V0.2H13.1803ZM15.0215 6.14076C15.2779 5.74187 15.629 5.42865 16.0999 5.19822L15.2208 3.40178C14.4383 3.78468 13.8027 4.33813 13.3391 5.05924L15.0215 6.14076ZM16.0924 5.20182C16.5835 4.96651 17.1468 4.84 17.8003 4.84V2.84C16.8805 2.84 16.0171 3.02016 15.2282 3.39818L16.0924 5.20182ZM35.0933 10.2V11.2H35.9952L36.088 10.3029L35.0933 10.2ZM26.3333 10.2V9.2H25.2696L25.3352 10.2616L26.3333 10.2ZM27.4333 12.74L26.7562 13.4759L26.7639 13.483L26.7717 13.4898L27.4333 12.74ZM31.8533 13.1L32.4225 13.9222L32.4267 13.9192L31.8533 13.1ZM32.9733 11.62V10.62H32.2623L32.0288 11.2915L32.9733 11.62ZM34.9333 11.62L35.8966 11.8883L36.2498 10.62H34.9333V11.62ZM33.1733 14.2L33.7694 15.0029L33.7771 14.9971L33.1733 14.2ZM27.0933 14.48L26.5956 15.3474L26.6017 15.3508L27.0933 14.48ZM25.1733 12.5L24.2928 12.9741L24.2959 12.9798L25.1733 12.5ZM25.1533 6.52L26.0364 6.98915L25.1533 6.52ZM27.0533 4.56L27.5401 5.43349L27.5449 5.43082L27.0533 4.56ZM32.6533 4.54L32.1603 5.41002L32.1603 5.41002L32.6533 4.54ZM34.4933 6.42L33.6109 6.89059L33.6156 6.89942L33.6205 6.90815L34.4933 6.42ZM33.2733 8.72V9.72H34.2733V8.72H33.2733ZM32.8133 6.94L31.9577 7.45784L31.964 7.46793L32.8133 6.94ZM31.5533 5.8L31.097 6.68982L31.1105 6.69675L31.1242 6.70328L31.5533 5.8ZM27.4533 6.28L26.7851 5.53591L26.7776 5.54285L27.4533 6.28ZM26.3533 8.72L25.3573 8.63062L25.2595 9.72H26.3533V8.72ZM34.1533 9.1C34.1533 9.40847 34.1355 9.74059 34.0986 10.0971L36.088 10.3029C36.1311 9.88608 36.1533 9.48486 36.1533 9.1H34.1533ZM35.0933 9.2H26.3333V11.2H35.0933V9.2ZM25.3352 10.2616C25.4145 11.546 25.8634 12.6546 26.7562 13.4759L28.1103 12.0041C27.6698 11.5988 27.3854 11.014 27.3314 10.1384L25.3352 10.2616ZM26.7717 13.4898C27.6457 14.261 28.7052 14.64 29.8933 14.64V12.64C29.1614 12.64 28.5809 12.419 28.0949 11.9902L26.7717 13.4898ZM29.8933 14.64C30.8334 14.64 31.6984 14.4235 32.4225 13.9222L31.2841 12.2778C30.9682 12.4965 30.5265 12.64 29.8933 12.64V14.64ZM32.4267 13.9192C33.1318 13.4257 33.6352 12.7609 33.9178 11.9485L32.0288 11.2915C31.8847 11.7058 31.6415 12.0276 31.2798 12.2808L32.4267 13.9192ZM32.9733 12.62H34.9333V10.62H32.9733V12.62ZM33.9699 11.3517C33.7359 12.192 33.2768 12.867 32.5694 13.4029L33.7771 14.9971C34.8298 14.1996 35.544 13.1547 35.8966 11.8883L33.9699 11.3517ZM32.5772 13.3971C31.9008 13.8992 31.0277 14.18 29.8933 14.18V16.18C31.3722 16.18 32.6858 15.8074 33.7694 15.0029L32.5772 13.3971ZM29.8933 14.18C29.0086 14.18 28.2475 13.9832 27.5849 13.6092L26.6017 15.3508C27.5924 15.9101 28.6979 16.18 29.8933 16.18V14.18ZM27.591 13.6126C26.9436 13.2412 26.4323 12.7181 26.0507 12.0202L24.2959 12.9798C24.8476 13.9885 25.6163 14.7855 26.5956 15.3474L27.591 13.6126ZM26.0538 12.0259C25.6767 11.3257 25.4733 10.4931 25.4733 9.5H23.4733C23.4733 10.7736 23.7365 11.941 24.2928 12.9741L26.0538 12.0259ZM25.4733 9.5C25.4733 8.50194 25.6721 7.67492 26.0364 6.98915L24.2702 6.05084C23.7278 7.07174 23.4733 8.23139 23.4733 9.5H25.4733ZM26.0364 6.98915C26.4029 6.29918 26.9017 5.78936 27.5401 5.43348L26.5664 3.68652C25.5782 4.23731 24.8103 5.03415 24.2702 6.05084L26.0364 6.98915ZM27.5449 5.43082C28.2037 5.0589 28.9772 4.86 29.8933 4.86V2.86C28.6761 2.86 27.5562 3.12776 26.5617 3.68918L27.5449 5.43082ZM29.8933 4.86C30.7835 4.86 31.5295 5.05256 32.1603 5.41002L33.1463 3.66998C32.1771 3.12077 31.0831 2.86 29.8933 2.86V4.86ZM32.1603 5.41002C32.7977 5.77124 33.2749 6.26046 33.6109 6.89059L35.3756 5.94941C34.8584 4.97954 34.1089 4.21543 33.1463 3.66998L32.1603 5.41002ZM33.6205 6.90815C33.9682 7.52981 34.1533 8.2518 34.1533 9.1H36.1533C36.1533 7.9482 35.8983 6.88352 35.366 5.93185L33.6205 6.90815ZM34.2733 8.72C34.2733 7.87654 34.0854 7.09222 33.6626 6.41207L31.964 7.46793C32.1545 7.77444 32.2733 8.1768 32.2733 8.72H34.2733ZM33.6688 6.4222C33.2611 5.74862 32.6931 5.23431 31.9823 4.89672L31.1242 6.70328C31.4802 6.87235 31.7521 7.11805 31.9578 7.4578L33.6688 6.4222ZM32.0096 4.91018C31.3353 4.56439 30.5966 4.4 29.8133 4.4V6.4C30.31 6.4 30.7313 6.50227 31.097 6.68982L32.0096 4.91018ZM29.8133 4.4C28.6595 4.4 27.6314 4.77607 26.7852 5.53595L28.1214 7.02405C28.5818 6.6106 29.127 6.4 29.8133 6.4V4.4ZM26.7776 5.54285C25.918 6.33081 25.4681 7.3954 25.3573 8.63062L27.3493 8.80938C27.4251 7.9646 27.7086 7.40252 28.129 7.01715L26.7776 5.54285ZM26.3533 9.72H33.2733V7.72H26.3533V9.72ZM46.1356 1.06H47.1356V0.0599995H46.1356V1.06ZM46.1356 2.54V3.54H47.1356V2.54H46.1356ZM42.3356 2.54V1.54H41.3356V2.54H42.3356ZM42.3356 15V16H43.3356V15H42.3356ZM40.5156 15H39.5156V16H40.5156V15ZM40.5156 2.54H41.5156V1.54H40.5156V2.54ZM36.6956 2.54H35.6956V3.54H36.6956V2.54ZM36.6956 1.06V0.0599995H35.6956V1.06H36.6956ZM45.1356 1.06V2.54H47.1356V1.06H45.1356ZM46.1356 1.54H42.3356V3.54H46.1356V1.54ZM41.3356 2.54V15H43.3356V2.54H41.3356ZM42.3356 14H40.5156V16H42.3356V14ZM41.5156 15V2.54H39.5156V15H41.5156ZM40.5156 1.54H36.6956V3.54H40.5156V1.54ZM37.6956 2.54V1.06H35.6956V2.54H37.6956ZM36.6956 2.06H46.1356V0.0599995H36.6956V2.06ZM58.3159 10.2V11.2H59.2178L59.3106 10.3029L58.3159 10.2ZM49.5559 10.2V9.2H48.4923L48.5578 10.2616L49.5559 10.2ZM50.6559 12.74L49.9789 13.4759L49.9865 13.483L49.9943 13.4898L50.6559 12.74ZM55.0759 13.1L55.6452 13.9222L55.6494 13.9192L55.0759 13.1ZM56.1959 11.62V10.62H55.485L55.2514 11.2915L56.1959 11.62ZM58.1559 11.62L59.1193 11.8883L59.4725 10.62H58.1559V11.62ZM56.3959 14.2L56.9921 15.0029L56.9998 14.9971L56.3959 14.2ZM50.3159 14.48L49.8183 15.3474L49.8243 15.3508L50.3159 14.48ZM48.3959 12.5L47.5154 12.9741L47.5186 12.9798L48.3959 12.5ZM48.3759 6.52L49.2591 6.98915L48.3759 6.52ZM50.2759 4.56L50.7628 5.43349L50.7675 5.43082L50.2759 4.56ZM55.8759 4.54L55.3829 5.41002L55.3829 5.41002L55.8759 4.54ZM57.7159 6.42L56.8336 6.89059L56.8383 6.89942L56.8432 6.90815L57.7159 6.42ZM56.4959 8.72V9.72H57.4959V8.72H56.4959ZM56.0359 6.94L55.1804 7.45784L55.1867 7.46793L56.0359 6.94ZM54.7759 5.8L54.3196 6.68982L54.3331 6.69675L54.3469 6.70328L54.7759 5.8ZM50.6759 6.28L50.0078 5.53591L50.0002 5.54285L50.6759 6.28ZM49.5759 8.72L48.5799 8.63062L48.4822 9.72H49.5759V8.72ZM57.3759 9.1C57.3759 9.40847 57.3581 9.74059 57.3212 10.0971L59.3106 10.3029C59.3537 9.88608 59.3759 9.48486 59.3759 9.1H57.3759ZM58.3159 9.2H49.5559V11.2H58.3159V9.2ZM48.5578 10.2616C48.6371 11.546 49.0861 12.6546 49.9789 13.4759L51.333 12.0041C50.8925 11.5988 50.6081 11.014 50.554 10.1384L48.5578 10.2616ZM49.9943 13.4898C50.8684 14.261 51.9278 14.64 53.1159 14.64V12.64C52.384 12.64 51.8035 12.419 51.3176 11.9902L49.9943 13.4898ZM53.1159 14.64C54.056 14.64 54.9211 14.4235 55.6451 13.9222L54.5067 12.2778C54.1908 12.4965 53.7492 12.64 53.1159 12.64V14.64ZM55.6494 13.9192C56.3544 13.4257 56.8579 12.7609 57.1404 11.9485L55.2514 11.2915C55.1073 11.7058 54.8641 12.0276 54.5025 12.2808L55.6494 13.9192ZM56.1959 12.62H58.1559V10.62H56.1959V12.62ZM57.1926 11.3517C56.9586 12.192 56.4994 12.867 55.7921 13.4029L56.9998 14.9971C58.0524 14.1996 58.7666 13.1547 59.1193 11.8883L57.1926 11.3517ZM55.7998 13.3971C55.1235 13.8992 54.2504 14.18 53.1159 14.18V16.18C54.5948 16.18 55.9084 15.8074 56.992 15.0029L55.7998 13.3971ZM53.1159 14.18C52.2313 14.18 51.4701 13.9832 50.8075 13.6092L49.8243 15.3508C50.8151 15.9101 51.9206 16.18 53.1159 16.18V14.18ZM50.8136 13.6126C50.1663 13.2412 49.655 12.7181 49.2733 12.0202L47.5186 12.9798C48.0702 13.9885 48.8389 14.7855 49.8183 15.3474L50.8136 13.6126ZM49.2764 12.0259C48.8994 11.3257 48.6959 10.4931 48.6959 9.5H46.6959C46.6959 10.7736 46.9592 11.941 47.5155 12.9741L49.2764 12.0259ZM48.6959 9.5C48.6959 8.50194 48.8947 7.67492 49.2591 6.98915L47.4928 6.05084C46.9505 7.07174 46.6959 8.23139 46.6959 9.5H48.6959ZM49.2591 6.98915C49.6256 6.29918 50.1243 5.78936 50.7628 5.43348L49.7891 3.68652C48.8009 4.23731 48.0329 5.03415 47.4928 6.05084L49.2591 6.98915ZM50.7675 5.43082C51.4264 5.0589 52.1998 4.86 53.1159 4.86V2.86C51.8987 2.86 50.7788 3.12776 49.7843 3.68918L50.7675 5.43082ZM53.1159 4.86C54.0062 4.86 54.7521 5.05256 55.3829 5.41002L56.3689 3.66998C55.3998 3.12077 54.3057 2.86 53.1159 2.86V4.86ZM55.3829 5.41002C56.0204 5.77124 56.4975 6.26046 56.8336 6.89059L58.5983 5.94941C58.081 4.97954 57.3315 4.21543 56.3689 3.66998L55.3829 5.41002ZM56.8432 6.90815C57.1909 7.52981 57.3759 8.2518 57.3759 9.1H59.3759C59.3759 7.9482 59.121 6.88352 58.5887 5.93185L56.8432 6.90815ZM57.4959 8.72C57.4959 7.87654 57.308 7.09222 56.8852 6.41207L55.1867 7.46793C55.3772 7.77444 55.4959 8.1768 55.4959 8.72H57.4959ZM56.8914 6.4222C56.4837 5.74862 55.9157 5.23431 55.205 4.89672L54.3469 6.70328C54.7028 6.87235 54.9748 7.11805 55.1804 7.4578L56.8914 6.4222ZM55.2323 4.91018C54.558 4.56439 53.8192 4.4 53.0359 4.4V6.4C53.5326 6.4 53.9539 6.50227 54.3196 6.68982L55.2323 4.91018ZM53.0359 4.4C51.8822 4.4 50.854 4.77607 50.0078 5.53595L51.3441 7.02405C51.8045 6.6106 52.3497 6.4 53.0359 6.4V4.4ZM50.0002 5.54285C49.1406 6.33081 48.6908 7.3954 48.5799 8.63062L50.5719 8.80938C50.6478 7.9646 50.9313 7.40252 51.3517 7.01715L50.0002 5.54285ZM49.5759 9.72H56.4959V7.72H49.5759V9.72ZM60.7783 6.54L61.6583 7.01494L61.6614 7.00916L60.7783 6.54ZM62.6583 4.56L62.1606 3.69261L62.1544 3.69622L62.6583 4.56ZM68.7583 4.84L68.1563 5.63854L68.1622 5.64291L68.7583 4.84ZM70.4983 7.56V8.56H71.7684L71.4704 7.32536L70.4983 7.56ZM68.5383 7.56L67.5753 7.82963L67.7798 8.56H68.5383V7.56ZM67.4383 5.98L66.8513 6.78967L66.8608 6.79642L67.4383 5.98ZM62.9183 6.48L63.6595 7.15131L63.6657 7.14436L62.9183 6.48ZM62.9183 12.56L63.6657 11.8956L62.9183 12.56ZM67.4383 13.08L68.0117 13.8992V13.8992L67.4383 13.08ZM68.5383 11.48V10.48H67.786L67.5775 11.2028L68.5383 11.48ZM70.4983 11.48L71.4657 11.7334L71.7939 10.48H70.4983V11.48ZM68.7383 14.18L69.3422 14.9771L69.3497 14.9713L68.7383 14.18ZM62.6583 14.48L62.1544 15.3438L62.1606 15.3474L62.6583 14.48ZM60.7783 12.5L59.8952 12.9692L60.7783 12.5ZM61.0983 9.5C61.0983 8.50146 61.2972 7.68396 61.6583 7.01493L59.8983 6.06507C59.3527 7.07604 59.0983 8.23188 59.0983 9.5H61.0983ZM61.6614 7.00916C62.0314 6.31261 62.5299 5.79256 63.1622 5.42378L62.1544 3.69622C61.1866 4.26077 60.4318 5.06072 59.8952 6.07084L61.6614 7.00916ZM63.156 5.42737C63.8018 5.05683 64.5534 4.86 65.4383 4.86V2.86C64.2432 2.86 63.1415 3.12984 62.1606 3.69263L63.156 5.42737ZM65.4383 4.86C66.621 4.86 67.5013 5.14473 68.1563 5.63852L69.3602 4.04148C68.2819 3.2286 66.9489 2.86 65.4383 2.86V4.86ZM68.1622 5.64291C68.837 6.14393 69.2959 6.84056 69.5262 7.79464L71.4704 7.32536C71.1407 5.95944 70.4395 4.84273 69.3544 4.03709L68.1622 5.64291ZM70.4983 6.56H68.5383V8.56H70.4983V6.56ZM69.5012 7.29037C69.2549 6.41072 68.7567 5.68764 68.0157 5.16358L66.8608 6.79642C67.2132 7.04569 67.4483 7.37595 67.5753 7.82963L69.5012 7.29037ZM68.0252 5.17039C67.2873 4.63539 66.403 4.4 65.4383 4.4V6.4C66.0736 6.4 66.5226 6.55127 66.8513 6.78961L68.0252 5.17039ZM65.4383 4.4C64.1382 4.4 63.017 4.86373 62.1709 5.81564L63.6657 7.14436C64.0996 6.65627 64.6583 6.4 65.4383 6.4V4.4ZM62.1771 5.80872C61.3173 6.75803 60.9583 8.03788 60.9583 9.5H62.9583C62.9583 8.34878 63.2392 7.6153 63.6595 7.15128L62.1771 5.80872ZM60.9583 9.5C60.9583 10.9737 61.3164 12.263 62.1709 13.2244L63.6657 11.8956C63.2402 11.417 62.9583 10.6663 62.9583 9.5H60.9583ZM62.1709 13.2244C63.017 14.1763 64.1382 14.64 65.4383 14.64V12.64C64.6583 12.64 64.0996 12.3837 63.6657 11.8956L62.1709 13.2244ZM65.4383 14.64C66.3959 14.64 67.2752 14.4148 68.0117 13.8992L66.8648 12.2608C66.5347 12.4918 66.0807 12.64 65.4383 12.64V14.64ZM68.0117 13.8992C68.7529 13.3804 69.243 12.6448 69.4991 11.7572L67.5775 11.2028C67.4335 11.7018 67.1904 12.0329 66.8648 12.2608L68.0117 13.8992ZM68.5383 12.48H70.4983V10.48H68.5383V12.48ZM69.5309 11.2266C69.2911 12.1424 68.8245 12.8496 68.1268 13.3887L69.3497 14.9713C70.4121 14.1504 71.1188 13.0576 71.4657 11.7334L69.5309 11.2266ZM68.1344 13.3829C67.4603 13.8936 66.5842 14.18 65.4383 14.18V16.18C66.9323 16.18 68.2563 15.7997 69.3421 14.9771L68.1344 13.3829ZM65.4383 14.18C64.5534 14.18 63.8018 13.9832 63.156 13.6126L62.1606 15.3474C63.1415 15.9102 64.2432 16.18 65.4383 16.18V14.18ZM63.1622 13.6162C62.5299 13.2474 62.0314 12.7274 61.6614 12.0308L59.8952 12.9692C60.4318 13.9793 61.1866 14.7792 62.1544 15.3438L63.1622 13.6162ZM61.6614 12.0308C61.2979 11.3467 61.0983 10.5135 61.0983 9.5H59.0983C59.0983 10.7798 59.352 11.9466 59.8952 12.9692L61.6614 12.0308ZM80.6067 4.38L80.1316 5.2599L80.1384 5.26361L80.1454 5.26722L80.6067 4.38ZM82.1667 5.96L81.2825 6.42712L81.2859 6.43359L81.2895 6.44001L82.1667 5.96ZM82.7467 15V16H83.7467V15H82.7467ZM80.9467 15H79.9467V16H80.9467V15ZM80.1267 6.3L79.3951 6.98177L79.403 6.99008L80.1267 6.3ZM75.5867 6.32L74.8637 5.62909L74.8557 5.63768L75.5867 6.32ZM74.7467 15V16H75.7467V15H74.7467ZM72.9267 15H71.9267V16H72.9267V15ZM72.9267 0.2V-0.8H71.9267V0.2H72.9267ZM74.7467 0.2H75.7467V-0.8H74.7467V0.2ZM74.7467 5.6H73.7467V9.00481L75.5879 6.14076L74.7467 5.6ZM76.2267 4.3L75.7946 3.39815L75.7872 3.40178L76.2267 4.3ZM78.3667 4.84C79.043 4.84 79.6239 4.98577 80.1316 5.2599L81.0819 3.50009C80.2562 3.05423 79.3438 2.84 78.3667 2.84V4.84ZM80.1454 5.26722C80.6199 5.51398 80.9978 5.88814 81.2825 6.42712L83.0509 5.49288C82.589 4.61852 81.9269 3.93935 81.0681 3.49278L80.1454 5.26722ZM81.2895 6.44001C81.5774 6.96626 81.7467 7.65195 81.7467 8.54H83.7467C83.7467 7.40138 83.5294 6.36707 83.044 5.47999L81.2895 6.44001ZM81.7467 8.54V15H83.7467V8.54H81.7467ZM82.7467 14H80.9467V16H82.7467V14ZM81.9467 15V8.8H79.9467V15H81.9467ZM81.9467 8.8C81.9467 7.54865 81.6327 6.43028 80.8505 5.60992L79.403 6.99008C79.7141 7.31639 79.9467 7.86469 79.9467 8.8H81.9467ZM80.8583 5.61827C80.0883 4.7919 79.0563 4.42 77.8867 4.42V6.42C78.6104 6.42 79.0718 6.63476 79.3951 6.98172L80.8583 5.61827ZM77.8867 4.42C76.7003 4.42 75.6557 4.8003 74.8637 5.62914L76.3097 7.01086C76.6644 6.63969 77.1531 6.42 77.8867 6.42V4.42ZM74.8557 5.63768C74.0644 6.48547 73.7467 7.64116 73.7467 8.94H75.7467C75.7467 7.94551 75.989 7.35452 76.3178 7.00232L74.8557 5.63768ZM73.7467 8.94V15H75.7467V8.94H73.7467ZM74.7467 14H72.9267V16H74.7467V14ZM73.9267 15V0.2H71.9267V15H73.9267ZM72.9267 1.2H74.7467V-0.8H72.9267V1.2ZM73.7467 0.2V5.6H75.7467V0.2H73.7467ZM75.5879 6.14076C75.8443 5.74187 76.1954 5.42865 76.6663 5.19822L75.7872 3.40178C75.0047 3.78468 74.3691 4.33813 73.9055 5.05924L75.5879 6.14076ZM76.6588 5.20182C77.1499 4.96651 77.7132 4.84 78.3667 4.84V2.84C77.4469 2.84 76.5835 3.02016 75.7946 3.39818L76.6588 5.20182ZM92.6997 7.82L92.3886 6.8696L92.5437 8.80776L92.6997 7.82ZM94.0797 8.44L93.4519 9.21841L93.458 9.22326L93.464 9.22802L94.0797 8.44ZM95.0797 9.68L94.1805 10.1175L94.1852 10.1272L94.1901 10.1368L95.0797 9.68ZM94.9197 13.18L95.7609 13.7208L95.7666 13.7118L94.9197 13.18ZM93.3397 14.52L93.7655 15.4249L93.773 15.4213L93.3397 14.52ZM85.7197 15H84.7197V16H85.7197V15ZM85.7197 1.06V0.0599995H84.7197V1.06H85.7197ZM93.1397 1.54L92.707 2.44152L92.7143 2.44507L92.7218 2.44849L93.1397 1.54ZM94.6397 2.8L93.7917 3.33V3.33L94.6397 2.8ZM94.4597 6.66L93.6899 6.02166L93.6883 6.02362L94.4597 6.66ZM87.5397 7.08H86.5397V8.08H87.5397V7.08ZM92.5797 3.16L91.9289 3.91926V3.91926L92.5797 3.16ZM87.5397 2.56V1.56H86.5397V2.56H87.5397ZM92.8797 12.86L93.5238 13.6249L92.8797 12.86ZM92.8397 9.26L92.192 10.0219L92.1976 10.0267L92.2033 10.0314L92.8397 9.26ZM87.5397 8.58V7.58H86.5397V8.58H87.5397ZM87.5397 13.5H86.5397V14.5H87.5397V13.5ZM92.5437 8.80776C92.8713 8.85948 93.1698 8.99091 93.4519 9.21841L94.7074 7.66159C94.1629 7.22242 93.5414 6.94052 92.8557 6.83224L92.5437 8.80776ZM93.464 9.22802C93.7691 9.46634 94.0061 9.75917 94.1805 10.1175L95.9789 9.24253C95.6732 8.61416 95.2436 8.08033 94.6953 7.65198L93.464 9.22802ZM94.1901 10.1368C94.3701 10.4874 94.4597 10.8573 94.4597 11.26H96.4597C96.4597 10.5427 96.2959 9.85929 95.9693 9.2232L94.1901 10.1368ZM94.4597 11.26C94.4597 11.7872 94.3282 12.2414 94.0728 12.6482L95.7666 13.7118C96.2311 12.9719 96.4597 12.1461 96.4597 11.26H94.4597ZM94.0785 12.6392C93.8333 13.0207 93.4595 13.3529 92.9064 13.6187L93.773 15.4213C94.6066 15.0205 95.2861 14.4593 95.7609 13.7208L94.0785 12.6392ZM92.9139 13.6152C92.3953 13.8592 91.7405 14 90.9197 14V16C91.9655 16 92.9241 15.8208 93.7655 15.4248L92.9139 13.6152ZM90.9197 14H85.7197V16H90.9197V14ZM86.7197 15V1.06H84.7197V15H86.7197ZM85.7197 2.06H90.7197V0.0599995H85.7197V2.06ZM90.7197 2.06C91.5571 2.06 92.2077 2.20187 92.707 2.44152L93.5724 0.638476C92.7384 0.238131 91.7756 0.0599995 90.7197 0.0599995V2.06ZM92.7218 2.44849C93.2414 2.68753 93.5781 2.98818 93.7917 3.33L95.4877 2.27C95.0347 1.54515 94.3713 1.0058 93.5576 0.631509L92.7218 2.44849ZM93.7917 3.33C94.0196 3.69472 94.1397 4.109 94.1397 4.6H96.1397C96.1397 3.75767 95.9264 2.97195 95.4877 2.27L93.7917 3.33ZM94.1397 4.6C94.1397 5.23376 93.9707 5.68312 93.6899 6.02166L95.2294 7.29834C95.8554 6.54354 96.1397 5.61957 96.1397 4.6H94.1397ZM93.6883 6.02362C93.3826 6.39422 92.9634 6.68149 92.3886 6.8696L93.0107 8.7704C93.9026 8.47851 94.6568 7.99245 95.2311 7.29638L93.6883 6.02362ZM87.5397 8.08H90.5997V6.08H87.5397V8.08ZM90.5997 8.08C91.5994 8.08 92.523 7.84565 93.2305 7.23926L91.9289 5.72074C91.703 5.91435 91.3066 6.08 90.5997 6.08V8.08ZM93.2305 7.23926C93.9532 6.61976 94.2797 5.76997 94.2797 4.82H92.2797C92.2797 5.28337 92.1395 5.54024 91.9289 5.72074L93.2305 7.23926ZM94.2797 4.82C94.2797 3.87004 93.9532 3.02024 93.2305 2.40074L91.9289 3.91926C92.1395 4.09976 92.2797 4.35663 92.2797 4.82H94.2797ZM93.2305 2.40074C92.5181 1.79013 91.577 1.56 90.5597 1.56V3.56C91.3024 3.56 91.7079 3.72986 91.9289 3.91926L93.2305 2.40074ZM90.5597 1.56H87.5397V3.56H90.5597V1.56ZM86.5397 2.56V7.08H88.5397V2.56H86.5397ZM90.7597 14.5C91.8153 14.5 92.7801 14.2512 93.5238 13.6249L92.2355 12.0951C91.966 12.3221 91.5174 12.5 90.7597 12.5V14.5ZM93.5238 13.6249C94.2908 12.979 94.6397 12.0864 94.6397 11.08H92.6397C92.6397 11.5936 92.4819 11.8876 92.2355 12.0951L93.5238 13.6249ZM94.6397 11.08C94.6397 10.0481 94.2688 9.14262 93.4761 8.48863L92.2033 10.0314C92.4772 10.2574 92.6397 10.5652 92.6397 11.08H94.6397ZM93.4873 8.49806C92.7279 7.85253 91.7632 7.58 90.6997 7.58V9.58C91.4229 9.58 91.8848 9.7608 92.192 10.0219L93.4873 8.49806ZM90.6997 7.58H87.5397V9.58H90.6997V7.58ZM86.5397 8.58V13.5H88.5397V8.58H86.5397ZM87.5397 14.5H90.7597V12.5H87.5397V14.5ZM99.8053 0.2H100.805V-0.8H99.8053V0.2ZM99.8053 15V16H100.805V15H99.8053ZM97.9853 15H96.9853V16H97.9853V15ZM97.9853 0.2V-0.8H96.9853V0.2H97.9853ZM98.8053 0.2V15H100.805V0.2H98.8053ZM99.8053 14H97.9853V16H99.8053V14ZM98.9853 15V0.2H96.9853V15H98.9853ZM97.9853 1.2H99.8053V-0.8H97.9853V1.2ZM104.887 14.48L104.396 15.3508L104.402 15.3542L104.887 14.48ZM102.927 12.5L102.047 12.9741L102.051 12.9822L102.056 12.9903L102.927 12.5ZM102.947 6.54L102.078 6.04529L102.076 6.04974L102.947 6.54ZM104.947 4.56L105.422 5.44009L105.433 5.43416L104.947 4.56ZM110.587 4.56L110.102 5.43422L110.112 5.44002L110.587 4.56ZM112.567 6.52L111.696 7.01029L111.701 7.0205L112.567 6.52ZM112.547 12.5L111.684 11.9953L111.681 11.9995L112.547 12.5ZM110.527 14.48L111.007 15.3574L110.527 14.48ZM110.907 11.74L110.045 11.2338L110.041 11.2408L110.037 11.2479L110.907 11.74ZM109.567 5.9L109.087 6.7771L109.095 6.78154L109.103 6.78583L109.567 5.9ZM105.907 5.9L106.38 6.78119L106.388 6.7771L105.907 5.9ZM104.587 7.26L105.466 7.73751L104.587 7.26ZM104.567 11.76L103.681 12.2226L103.685 12.2301L103.689 12.2375L104.567 11.76ZM105.887 13.14L105.398 14.0121L105.406 14.0167L105.414 14.0212L105.887 13.14ZM107.687 14.18C106.818 14.18 106.054 13.9843 105.373 13.6058L104.402 15.3542C105.4 15.909 106.503 16.18 107.687 16.18V14.18ZM105.379 13.6092C104.716 13.2352 104.192 12.7091 103.799 12.0097L102.056 12.9903C102.622 13.9975 103.405 14.7915 104.396 15.3508L105.379 13.6092ZM103.808 12.0259C103.431 11.3257 103.227 10.4931 103.227 9.5H101.227C101.227 10.7736 101.49 11.941 102.047 12.9741L103.808 12.0259ZM103.227 9.5C103.227 8.52669 103.434 7.7135 103.819 7.03026L102.076 6.04974C101.5 7.07317 101.227 8.23331 101.227 9.5H103.227ZM103.816 7.0347C104.221 6.32321 104.755 5.80028 105.422 5.44002L104.472 3.67998C103.46 4.22638 102.66 5.02345 102.078 6.0453L103.816 7.0347ZM105.433 5.43416C106.112 5.05674 106.883 4.86 107.767 4.86V2.86C106.572 2.86 105.462 3.12993 104.462 3.68584L105.433 5.43416ZM107.767 4.86C108.652 4.86 109.422 5.05674 110.102 5.43416L111.073 3.68584C110.072 3.12993 108.963 2.86 107.767 2.86V4.86ZM110.112 5.44002C110.781 5.80114 111.306 6.31726 111.696 7.01026L113.439 6.02974C112.869 5.01607 112.073 4.22552 111.062 3.67998L110.112 5.44002ZM111.701 7.0205C112.094 7.70014 112.307 8.5157 112.307 9.5H114.307C114.307 8.21763 114.027 7.04653 113.433 6.0195L111.701 7.0205ZM112.307 9.5C112.307 10.4793 112.09 11.3007 111.684 11.9953L113.41 13.0047C114.018 11.9659 114.307 10.7874 114.307 9.5H112.307ZM111.681 11.9995C111.279 12.6965 110.738 13.2251 110.047 13.6026L111.007 15.3574C112.023 14.8016 112.829 14.0102 113.413 13.0005L111.681 11.9995ZM110.047 13.6026C109.351 13.9833 108.571 14.18 107.687 14.18V16.18C108.883 16.18 109.996 15.9101 111.007 15.3574L110.047 13.6026ZM107.687 14.58C108.504 14.58 109.28 14.3865 109.999 14.0018L109.056 12.2382C108.628 12.4669 108.177 12.58 107.687 12.58V14.58ZM109.999 14.0018C110.753 13.5982 111.346 12.9961 111.778 12.2321L110.037 11.2479C109.775 11.7105 109.448 12.0285 109.056 12.2382L109.999 14.0018ZM111.77 12.2462C112.239 11.4469 112.447 10.516 112.447 9.5H110.447C110.447 10.244 110.296 10.8065 110.045 11.2338L111.77 12.2462ZM112.447 9.5C112.447 8.48993 112.248 7.56441 111.798 6.76794L110.057 7.75206C110.3 8.18226 110.447 8.75007 110.447 9.5H112.447ZM111.798 6.76794C111.368 6.00679 110.781 5.40689 110.031 5.01417L109.103 6.78583C109.473 6.97978 109.794 7.28655 110.057 7.75206L111.798 6.76794ZM110.048 5.0229C109.337 4.63367 108.564 4.44 107.747 4.44V6.44C108.237 6.44 108.678 6.553 109.087 6.7771L110.048 5.0229ZM107.747 4.44C106.92 4.44 106.141 4.63198 105.427 5.0229L106.388 6.7771C106.794 6.55468 107.241 6.44 107.747 6.44V4.44ZM105.434 5.01884C104.695 5.41554 104.123 6.02008 103.709 6.78249L105.466 7.73751C105.718 7.27325 106.026 6.97112 106.38 6.78116L105.434 5.01884ZM103.709 6.78249C103.277 7.57574 103.087 8.49582 103.087 9.5H105.087C105.087 8.74418 105.23 8.17092 105.466 7.73751L103.709 6.78249ZM103.087 9.5C103.087 10.5089 103.268 11.4309 103.681 12.2226L105.454 11.2974C105.227 10.8624 105.087 10.2778 105.087 9.5H103.087ZM103.689 12.2375C104.101 12.997 104.669 13.603 105.398 14.0121L106.376 12.2679C106.012 12.0637 105.7 11.7496 105.446 11.2825L103.689 12.2375ZM105.414 14.0212C106.114 14.3967 106.878 14.58 107.687 14.58V12.58C107.19 12.58 106.754 12.47 106.36 12.2588L105.414 14.0212ZM122.7 4.48L122.195 5.34321L122.202 5.34725L122.7 4.48ZM124.3 6.04L123.425 6.52406L125.3 6.04H124.3ZM124.3 4.04V3.04H123.3V4.04H124.3ZM126.14 4.04H127.14V3.04H126.14V4.04ZM125.5 17.9L124.625 17.4169L124.621 17.4232L125.5 17.9ZM123.66 19.74L123.178 18.8638L123.172 18.8672L123.66 19.74ZM117.3 19.38L116.722 20.196L117.3 19.38ZM115.6 16.6V15.6H114.442L114.611 16.7461L115.6 16.6ZM117.4 16.6L118.358 16.3127L118.144 15.6H117.4V16.6ZM118.64 18.2L119.191 17.3652L119.185 17.3611L119.178 17.3571L118.64 18.2ZM123.34 17.88L122.64 17.1655L122.633 17.1729L123.34 17.88ZM124.3 12.94H125.3V9.12249L123.429 12.4497L124.3 12.94ZM122.7 14.54L122.183 13.6839L122.7 14.54ZM117.56 14.46L117.039 15.3137L117.046 15.3175L117.56 14.46ZM115.7 12.44L116.586 11.9765L115.7 12.44ZM115.7 6.54L116.58 7.01494L116.583 7.00916L115.7 6.54ZM117.56 4.56L117.056 3.6962L117.05 3.69995L117.56 4.56ZM122.44 5.94L121.929 6.79929L121.941 6.80641L121.953 6.8132L122.44 5.94ZM118.72 5.92L118.224 5.05176V5.05176L118.72 5.92ZM117.38 7.32L118.259 7.79751V7.79751L117.38 7.32ZM117.38 11.68L116.497 12.1496L116.502 12.1575L117.38 11.68ZM118.72 13.1L118.209 13.9593L118.216 13.9638L118.224 13.9682L118.72 13.1ZM122.44 13.1L122.936 13.9683L122.943 13.9645L122.44 13.1ZM123.8 11.68L124.679 12.1575L124.683 12.1496L123.8 11.68ZM120.22 4.86C121.017 4.86 121.664 5.03265 122.195 5.34319L123.205 3.61681C122.323 3.10068 121.316 2.86 120.22 2.86V4.86ZM122.202 5.34725C122.79 5.68439 123.18 6.08117 123.425 6.52406L125.175 5.55594C124.727 4.74549 124.051 4.10228 123.198 3.61275L122.202 5.34725ZM125.3 6.04V4.04H123.3V6.04H125.3ZM124.3 5.04H126.14V3.04H124.3V5.04ZM125.14 4.04V15.24H127.14V4.04H125.14ZM125.14 15.24C125.14 16.0937 124.959 16.8102 124.625 17.4169L126.376 18.3831C126.894 17.4432 127.14 16.3863 127.14 15.24H125.14ZM124.621 17.4232C124.288 18.0379 123.814 18.5142 123.178 18.8638L124.142 20.6162C125.106 20.0858 125.859 19.3354 126.379 18.3768L124.621 17.4232ZM123.172 18.8672C122.558 19.2107 121.812 19.4 120.9 19.4V21.4C122.095 21.4 123.189 21.1493 124.148 20.6128L123.172 18.8672ZM120.9 19.4C119.62 19.4 118.634 19.0997 117.878 18.564L116.722 20.196C117.886 21.0203 119.3 21.4 120.9 21.4V19.4ZM117.878 18.564C117.143 18.0432 116.723 17.3596 116.589 16.4539L114.611 16.7461C114.824 18.187 115.537 19.3568 116.722 20.196L117.878 18.564ZM115.6 17.6H117.4V15.6H115.6V17.6ZM116.442 16.8873C116.716 17.7999 117.288 18.5235 118.102 19.0429L119.178 17.3571C118.739 17.0765 118.484 16.7334 118.358 16.3127L116.442 16.8873ZM118.09 19.0348C118.906 19.5734 119.859 19.82 120.9 19.82V17.82C120.181 17.82 119.627 17.6533 119.191 17.3652L118.09 19.0348ZM120.9 19.82C122.128 19.82 123.208 19.426 124.047 18.5871L122.633 17.1729C122.219 17.5873 121.672 17.82 120.9 17.82V19.82ZM124.04 18.5945C124.92 17.7329 125.3 16.5669 125.3 15.24H123.3C123.3 16.1797 123.041 16.7738 122.641 17.1655L124.04 18.5945ZM125.3 15.24V12.94H123.3V15.24H125.3ZM123.429 12.4497C123.163 12.9213 122.761 13.3352 122.183 13.6839L123.217 15.3961C124.053 14.8914 124.717 14.2387 125.172 13.4303L123.429 12.4497ZM122.183 13.6839C121.654 14.0033 121.012 14.18 120.22 14.18V16.18C121.322 16.18 122.333 15.9301 123.217 15.3961L122.183 13.6839ZM120.22 14.18C119.42 14.18 118.712 13.9851 118.075 13.6025L117.046 15.3175C118.008 15.8949 119.074 16.18 120.22 16.18V14.18ZM118.081 13.6064C117.459 13.2267 116.961 12.6927 116.586 11.9765L114.814 12.9035C115.346 13.9207 116.088 14.7333 117.039 15.3136L118.081 13.6064ZM116.586 11.9765C116.217 11.2707 116.02 10.4467 116.02 9.48H114.02C114.02 10.7266 114.277 11.8759 114.814 12.9035L116.586 11.9765ZM116.02 9.48C116.02 8.497 116.218 7.68561 116.58 7.01493L114.82 6.06507C114.275 7.07439 114.02 8.223 114.02 9.48H116.02ZM116.583 7.00916C116.956 6.30832 117.451 5.78774 118.07 5.42005L117.05 3.69995C116.096 4.26559 115.351 5.06501 114.817 6.07084L116.583 7.00916ZM118.064 5.42378C118.703 5.05094 119.414 4.86 120.22 4.86V2.86C119.079 2.86 118.017 3.13573 117.056 3.69622L118.064 5.42378ZM125.3 9.5C125.3 8.53726 125.105 7.64719 124.679 6.86249L122.922 7.81751C123.162 8.25947 123.3 8.8094 123.3 9.5H125.3ZM124.679 6.86249C124.261 6.09388 123.677 5.48493 122.928 5.0668L121.953 6.8132C122.35 7.03507 122.673 7.35946 122.922 7.81751L124.679 6.86249ZM122.952 5.08071C122.23 4.65119 121.432 4.44 120.58 4.44V6.44C121.088 6.44 121.53 6.56214 121.929 6.79929L122.952 5.08071ZM120.58 4.44C119.736 4.44 118.943 4.64067 118.224 5.05176L119.216 6.78824C119.617 6.55933 120.064 6.44 120.58 6.44V4.44ZM118.224 5.05176C117.489 5.47151 116.916 6.07986 116.502 6.84249L118.259 7.79751C118.511 7.33348 118.831 7.00849 119.216 6.78824L118.224 5.05176ZM116.502 6.84249C116.075 7.62719 115.88 8.51726 115.88 9.48H117.88C117.88 8.7894 118.019 8.23947 118.259 7.79751L116.502 6.84249ZM115.88 9.48C115.88 10.4538 116.074 11.354 116.497 12.1496L118.263 11.2104C118.02 10.7527 117.88 10.1862 117.88 9.48H115.88ZM116.502 12.1575C116.914 12.9171 117.483 13.5275 118.209 13.9593L119.232 12.2407C118.837 12.0059 118.513 11.6695 118.259 11.2025L116.502 12.1575ZM118.224 13.9682C118.943 14.3793 119.736 14.58 120.58 14.58V12.58C120.064 12.58 119.617 12.4607 119.216 12.2318L118.224 13.9682ZM120.58 14.58C121.424 14.58 122.217 14.3793 122.936 13.9682L121.944 12.2318C121.543 12.4607 121.096 12.58 120.58 12.58V14.58ZM122.943 13.9645C123.683 13.5341 124.263 12.923 124.679 12.1575L122.922 11.2025C122.671 11.6636 122.344 11.9992 121.938 12.2355L122.943 13.9645ZM124.683 12.1496C125.105 11.3562 125.3 10.4634 125.3 9.5H123.3C123.3 10.19 123.162 10.7504 122.917 11.2104L124.683 12.1496Z" fill="black" mask="url(#path-1-outside-1_713_2)"/>
</svg>
